HIERARCHY
ROOT Hips
{
    OFFSET 0.0 0.0 0.0
    CHANNELS 6 Xposition Yposition Zposition Zrotation Xrotation Yrotation
    JOINT Spine
    {
        OFFSET 0.0 5.0 0.0
        CHANNELS 3 Zrotation Xrotation Yrotation
        JOINT Chest
        {
            OFFSET 0.0 5.0 0.0
            CHANNELS 3 Zrotation Xrotation Yrotation
            JOINT Neck
            {
                OFFSET 0.0 8.0 0.0
                CHANNELS 3 Zrotation Xrotation Yrotation
                JOINT Head
                {
                    OFFSET 0.0 5.0 0.0
                    CHANNELS 3 Zrotation Xrotation Yrotation
                    End Site
                    {
                        OFFSET 0.0 3.0 0.0
                    }
                }
            }
            JOINT LeftShoulder
            {
                OFFSET -5.0 0.0 0.0
                CHANNELS 3 Zrotation Xrotation Yrotation
                JOINT LeftArm
                {
                    OFFSET 0.0 -10.0 0.0
                    CHANNELS 3 Zrotation Xrotation Yrotation
                    JOINT LeftForeArm
                    {
                        OFFSET 0.0 -10.0 0.0
                        CHANNELS 3 Zrotation Xrotation Yrotation
                        End Site
                        {
                            OFFSET 0.0 -3.0 0.0
                        }
                    }
                }
            }
        }
    }
}

MOTION
Frames: 14
Frame Time: 0.033333
970.000000 442.938926 137.902280 0.000000 0.000000 0.000000 0.000000 0.000000 0.000000 29.678605 -3.392957 0.000000 180.000000 -0.506942 0.000000 29.744881 8.966485 -0.000000 150.255119 3.148339 30.000000 19.983107 5.787399 0.000000 18.000000 0.254740 0.000000
1354.522934 467.411410 147.085910 0.000000 0.000000 0.000000 0.000000 0.000000 0.000000 150.622570 13.213430 4.973798 -29.377430 2.609551 4.973798 140.176400 -1.878251 3.759997 -12.221629 -2.962590 29.763441 132.794256 -0.330913 -3.759997 -2.626015 0.198617 0.313953
969.997807 442.887864 138.229791 0.000000 0.000000 0.000000 0.000000 0.000000 0.000000 31.061399 0.435667 9.635073 180.000000 0.199030 9.635073 30.285790 -7.546156 7.460697 149.714210 -10.667134 29.057495 19.151579 5.483798 -7.460697 18.000000 0.096716 0.626666
1246.736984 514.278152 128.696413 0.000000 0.000000 0.000000 0.000000 0.000000 0.000000 143.557092 -4.377987 13.690942 -36.442908 -4.119472 13.690942 133.761037 -3.861515 11.043737 -156.950665 -5.927418 27.893295 0.000000 0.000000 0.000000 1.928484 0.456813 0.936907
1245.221100 458.637464 128.150672 0.000000 0.000000 0.000000 0.000000 0.000000 0.000000 160.701064 -2.246018 16.886559 -19.298936 16.075865 16.886559 140.193827 -6.714272 14.452610 -157.554825 -5.435198 26.289200 29.500467 5.799884 -14.452610 -15.049953 -0.579988 1.243449
1257.365570 418.514181 101.756971 0.000000 0.000000 0.000000 0.000000 0.000000 0.000000 -143.710676 -4.793887 19.021130 36.289324 3.938100 19.021130 163.220413 2.645285 17.633558 11.688054 2.547647 24.270510 152.038385 2.378066 -17.633558 -2.339948 -0.396681 1.545085
1275.099564 408.163741 109.085873 0.000000 0.000000 0.000000 0.000000 0.000000 0.000000 -132.929531 1.723763 19.960535 47.070469 2.106104 19.960535 173.491912 -5.052037 20.536413 -160.709681 -5.179861 21.869059 33.138793 4.643903 -20.536413 -14.686121 -0.464390 1.840623
1290.611115 384.880857 100.575463 0.000000 0.000000 0.000000 0.000000 0.000000 0.000000 -132.705235 1.601646 19.645745 47.294765 1.141360 19.645745 -173.778854 0.128713 23.115397 20.496835 -3.083287 19.122720 -161.220290 -3.711447 -23.115397 1.723235 0.423209 2.128896
1302.817154 380.305352 90.496014 0.000000 0.000000 0.000000 0.000000 0.000000 0.000000 -131.493915 -8.431194 18.096541 48.506085 4.135559 18.096541 -165.393697 -2.290927 25.329838 23.154815 -0.821678 16.074804 -178.200316 0.938175 -25.329838 0.138141 0.107043 2.408768
1304.997711 379.563582 94.192610 0.000000 0.000000 0.000000 0.000000 0.000000 0.000000 -126.727972 2.046409 15.410265 53.272028 0.147774 15.410265 -160.219593 -1.525739 27.144812 28.448880 -3.812648 12.773379 -174.368770 0.175100 -27.144812 0.079526 0.206331 2.679134
1311.668472 386.890390 98.858799 0.000000 0.000000 0.000000 0.000000 0.000000 0.000000 -122.308728 -12.630796 11.755705 57.691272 10.719556 11.755705 -158.801130 -2.775576 28.531695 150.942637 1.576817 9.270510 -154.878332 -4.159385 -28.531695 2.695409 0.471972 2.938926
1305.131836 395.180186 79.909616 0.000000 0.000000 0.000000 0.000000 0.000000 0.000000 -125.112810 -9.041103 7.362491 54.887190 7.670011 7.362491 -146.487292 -0.826808 29.468618 -175.167369 6.367483 5.621439 -159.224034 -4.331698 -29.468618 1.782042 0.417251 3.187120
1296.320457 392.734526 85.757428 0.000000 0.000000 0.000000 0.000000 0.000000 0.000000 -131.035750 23.959336 2.506665 48.964250 -23.155836 2.506665 -128.969563 -1.654807 29.940802 38.856147 -7.269672 1.883716 -134.776850 -4.224257 -29.940802 3.458429 0.246210 3.422736
1306.963577 386.612041 70.616159 0.000000 0.000000 0.000000 0.000000 0.000000 0.000000 -124.469622 -1.017766 -2.506665 55.530378 0.224536 -2.506665 -109.994856 1.579411 29.940802 37.691309 -1.187903 -1.883716 -118.274788 0.450103 -29.940802 5.098336 -0.020724 3.644843
